<?xml version="1.0" encoding="iso-8859-1"?>
<!-- Uploaded to: SVG Repo, www.svgrepo.com, Generator: SVG Repo Mixer Tools -->
<svg version="1.1" id="Layer_1" xmlns="http://www.w3.org/2000/svg" xmlns:xlink="http://www.w3.org/1999/xlink" 
	 viewBox="0 0 512 512" xml:space="preserve">
<polygon style="fill:#FFFE9F;" points="300.522,434.087 211.478,434.087 166.957,500.87 211.478,500.87 278.261,500.87 
	345.043,500.87 "/>
<g>
	<path style="fill:#4A7DBA;" d="M278.261,189.217v-83.789c0-32.735-7.621-65.02-22.261-94.298l0,0l0,0
		c-14.64,29.279-22.261,61.564-22.261,94.298v83.789l0,0l-22.261,22.261v222.609h89.043V211.478L278.261,189.217z"/>
	<path style="fill:#4A7DBA;" d="M367.304,434.087h-66.783V313.823c0-23.083,7.487-45.545,21.337-64.011l12.054-16.072l12.054,16.072
		c13.85,18.467,21.337,40.928,21.337,64.011V434.087z"/>
	<path style="fill:#4A7DBA;" d="M144.696,434.087h66.783V313.823c0-23.083-7.487-45.545-21.337-64.011l-12.054-16.072
		l-12.054,16.072c-13.85,18.467-21.337,40.928-21.337,64.011V434.087z"/>
</g>
<rect x="145.809" y="389.565" style="fill:#87DFD6;" width="222.609" height="44.522"/>
<path d="M354.872,243.133l-12.054-16.072c-2.103-2.803-5.402-4.452-8.904-4.452s-6.802,1.65-8.904,4.452l-12.054,16.072
	c-0.446,0.595-0.867,1.209-1.302,1.813v-33.468c0-2.952-1.173-5.782-3.26-7.87l-19.001-19.002V105.43
	c0-34.284-8.104-68.614-23.436-99.276C264.07,2.382,260.216,0,256,0c-4.216,0-8.07,2.382-9.955,6.153
	c-15.332,30.663-23.436,64.993-23.436,99.277v79.177l-19.001,19.001c-2.087,2.088-3.26,4.919-3.26,7.87v33.468
	c-0.435-0.604-0.856-1.218-1.302-1.813l-12.054-16.072c-2.103-2.803-5.402-4.452-8.904-4.452c-3.503,0-6.802,1.65-8.904,4.452
	l-12.054,16.072c-15.195,20.261-23.563,45.364-23.563,70.689v75.743v44.522c0,6.146,4.983,11.13,11.13,11.13h45.985l-32.985,49.478
	c-2.277,3.415-2.49,7.807-0.553,11.426c1.937,3.619,5.709,5.878,9.814,5.878h44.522c6.147,0,11.13-4.984,11.13-11.13
	c0-6.146-4.983-11.13-11.13-11.13h-23.725l29.682-44.522h77.129l29.68,44.522h-45.984c-6.146,0-11.13,4.984-11.13,11.13
	c0,6.146,4.984,11.13,11.13,11.13h66.783c4.105,0,7.876-2.259,9.813-5.878c1.937-3.62,1.725-8.011-0.552-11.426l-32.985-49.478
	h45.985c6.146,0,11.13-4.984,11.13-11.13v-44.522v-75.743C378.435,288.497,370.066,263.394,354.872,243.133z M330.763,256.49
	l3.15-4.199l3.15,4.199c12.324,16.432,19.111,36.793,19.111,57.333v64.612h-44.522v-64.612
	C311.652,293.283,318.44,272.922,330.763,256.49z M222.609,216.09l19.001-19.001c2.087-2.088,3.26-4.919,3.26-7.87V105.43
	c0-22.294,3.81-44.613,11.13-65.691c7.32,21.078,11.13,43.395,11.13,65.691v83.788c0,2.952,1.173,5.782,3.26,7.87l19.001,19.002
	v97.734v64.611h-66.783v-64.612V216.09z M174.937,256.49l3.15-4.199l3.15,4.199c12.324,16.432,19.111,36.793,19.111,57.333v64.612
	h-44.522v-64.612C155.826,293.283,162.613,272.922,174.937,256.49z M155.826,400.696h44.522v22.261h-44.522V400.696z
	 M222.609,400.696h66.783v22.261h-66.783V400.696z M356.174,422.957h-44.522v-22.261h44.522V422.957z"/>
<path d="M256,289.391c6.146,0,11.13-4.984,11.13-11.13v-44.522c0-6.146-4.984-11.13-11.13-11.13c-6.147,0-11.13,4.984-11.13,11.13
	v44.522C244.87,284.407,249.853,289.391,256,289.391z"/>
<path d="M255.143,496.618c-0.278-0.679-0.623-1.325-1.024-1.924c-0.401-0.613-0.868-1.181-1.38-1.693s-1.08-0.979-1.692-1.38
	c-0.601-0.4-1.247-0.746-1.914-1.024c-0.679-0.278-1.38-0.489-2.093-0.633c-1.425-0.29-2.905-0.29-4.341,0
	c-0.712,0.145-1.414,0.355-2.093,0.633c-0.668,0.278-1.313,0.624-1.914,1.024c-0.612,0.401-1.18,0.868-1.692,1.38
	c-0.512,0.512-0.979,1.08-1.38,1.693c-0.412,0.6-0.746,1.245-1.024,1.924c-0.278,0.668-0.501,1.369-0.634,2.081
	c-0.145,0.712-0.223,1.447-0.223,2.17c0,0.722,0.078,1.458,0.223,2.17c0.134,0.712,0.356,1.414,0.634,2.093
	c0.278,0.668,0.612,1.313,1.024,1.914c0.401,0.612,0.868,1.18,1.38,1.692c0.512,0.512,1.08,0.981,1.692,1.391
	c0.601,0.391,1.247,0.735,1.914,1.013c0.679,0.278,1.38,0.501,2.093,0.634c0.712,0.145,1.447,0.223,2.17,0.223
	c0.723,0,1.458-0.078,2.17-0.223c0.712-0.134,1.414-0.356,2.081-0.634c0.679-0.278,1.325-0.623,1.926-1.013
	c0.612-0.411,1.18-0.879,1.692-1.391c0.512-0.512,0.979-1.08,1.38-1.692c0.401-0.601,0.746-1.247,1.024-1.914
	c0.278-0.679,0.49-1.38,0.634-2.093c0.145-0.713,0.223-1.448,0.223-2.17c0-0.723-0.078-1.459-0.223-2.17
	S255.421,497.284,255.143,496.618z"/>
</svg>